<svg height="512" viewBox="0 0 64 64" width="512" xmlns="http://www.w3.org/2000/svg"><g id="Fill_Outline" data-name="Fill Outline"><path d="m46 37h14v24h-14z" fill="#2d72bc"/><path d="m46 29h6v8h-6z" fill="#4891d3"/><path d="m46 41h14v4h-14z" fill="#57b7eb"/><path d="m46 45h14v4h-14z" fill="#4891d3"/><path d="m46 49h14v4h-14z" fill="#2d72bc"/><path d="m46 53h14v4h-14z" fill="#57b7eb"/><path d="m56 37h4v4h-4z" fill="#4891d3"/><path d="m50 45h4v4h-4z" fill="#2d72bc"/><path d="m52 53h4v4h-4z" fill="#4891d3"/><path d="m46 29h6v4h-6z" fill="#57b7eb"/><path d="m4 29h14v32h-14z" fill="#a1d51c"/><path d="m7 45v-16h-3v32h14v-6h-1a10 10 0 0 1 -10-10z" fill="#7ab92d"/><path d="m14 33h4v4h-4z" fill="#57b7eb"/><path d="m4 33h6v4h-6z" fill="#57b7eb"/><path d="m14 41h4v4h-4z" fill="#57b7eb"/><path d="m4 41h6v4h-6z" fill="#57b7eb"/><path d="m14 49h4v4h-4z" fill="#57b7eb"/><path d="m4 49h6v4h-6z" fill="#57b7eb"/><path d="m10 52.136a10.02 10.02 0 0 1 -2.162-3.136h-3.838v4h6z" fill="#4891d3"/><path d="m18 37h-4v-4z" fill="#2d72bc"/><path d="m10 37h-6v-4z" fill="#4891d3"/><path d="m18 45h-4v-4z" fill="#2d72bc"/><path d="m10 45h-6v-4z" fill="#4891d3"/><path d="m18 53h-4v-4z" fill="#2d72bc"/><path d="m10 53h-6v-4z" fill="#2d72bc"/><path d="m4 33h3v4h-3z" fill="#4891d3"/><path d="m4 41h3v4h-3z" fill="#4891d3"/><path d="m18 17h28v40h-28z" fill="#d0d8da"/><path d="m24 30v-13h-6v40h28v-14h-9a13 13 0 0 1 -13-13z" fill="#93999a"/><path d="m26 11h12v6h-12z" fill="#fcbc04"/><path d="m30 7h4v4h-4z" fill="#4891d3"/><path d="m13 57h38v4h-38z" fill="#d0d8da"/><path d="m24 49h16v8h-16z" fill="#2d72bc"/><path d="m22 45h20v4h-20z" fill="#fcbc04"/><path d="m22 21h4v4h-4z" fill="#57b7eb"/><path d="m30 21h4v4h-4z" fill="#57b7eb"/><path d="m38 21h4v4h-4z" fill="#57b7eb"/><path d="m22 29h4v4h-4z" fill="#57b7eb"/><path d="m30 29h4v4h-4z" fill="#57b7eb"/><path d="m38 29h4v4h-4z" fill="#57b7eb"/><path d="m22 37h4v4h-4z" fill="#4891d3"/><path d="m30 37h4v4h-4z" fill="#57b7eb"/><path d="m38 37h4v4h-4z" fill="#57b7eb"/><path d="m26 25h-4v-4z" fill="#4891d3"/><path d="m34 25h-4v-4z" fill="#4891d3"/><path d="m42 25h-4v-4z" fill="#4891d3"/><path d="m26 33h-4v-4z" fill="#4891d3"/><path d="m34 33h-4v-4z" fill="#4891d3"/><path d="m42 33h-4v-4z" fill="#4891d3"/><path d="m26 41h-4v-4z" fill="#2d72bc"/><path d="m34 41h-4v-4z" fill="#4891d3"/><path d="m42 41h-4v-4z" fill="#4891d3"/><path d="m27 51 6 6h7v-2l-4-4z" fill="#4891d3"/><path d="m24 45h18a0 0 0 0 1 0 0v2a0 0 0 0 1 0 0h-16a2 2 0 0 1 -2-2 0 0 0 0 1 0 0z" fill="#f9e109"/><path d="m28 11h10a0 0 0 0 1 0 0v3a0 0 0 0 1 0 0h-7a3 3 0 0 1 -3-3 0 0 0 0 1 0 0z" fill="#f9e109"/><path d="m31 7h3a0 0 0 0 1 0 0v3a0 0 0 0 1 0 0 3 3 0 0 1 -3-3 0 0 0 0 1 0 0z" fill="#57b7eb"/><path d="m15 57h-2v4h38v-2h-34a2 2 0 0 1 -2-2z" fill="#93999a"/><path d="m22 21h2v4h-2z" fill="#4891d3"/><path d="m22 33h2.362a13.015 13.015 0 0 1 -.362-3v-1h-2z" fill="#4891d3"/><path d="m24 23-2-2v4h2z" fill="#2d72bc"/><path d="m22 29v4h2.362a13.388 13.388 0 0 1 -.295-1.933z" fill="#2d72bc"/><path d="m7 35-3-2v4h3z" fill="#2d72bc"/><path d="m4 41v4h3v-2z" fill="#2d72bc"/><g fill="#1f2d51"><path d="m27 21a1 1 0 0 0 -1-1h-4a1 1 0 0 0 -1 1v4a1 1 0 0 0 1 1h4a1 1 0 0 0 1-1zm-2 3h-2v-2h2z"/><path d="m35 21a1 1 0 0 0 -1-1h-4a1 1 0 0 0 -1 1v4a1 1 0 0 0 1 1h4a1 1 0 0 0 1-1zm-2 3h-2v-2h2z"/><path d="m43 21a1 1 0 0 0 -1-1h-4a1 1 0 0 0 -1 1v4a1 1 0 0 0 1 1h4a1 1 0 0 0 1-1zm-2 3h-2v-2h2z"/><path d="m27 29a1 1 0 0 0 -1-1h-4a1 1 0 0 0 -1 1v4a1 1 0 0 0 1 1h4a1 1 0 0 0 1-1zm-2 3h-2v-2h2z"/><path d="m35 29a1 1 0 0 0 -1-1h-4a1 1 0 0 0 -1 1v4a1 1 0 0 0 1 1h4a1 1 0 0 0 1-1zm-2 3h-2v-2h2z"/><path d="m43 29a1 1 0 0 0 -1-1h-4a1 1 0 0 0 -1 1v4a1 1 0 0 0 1 1h4a1 1 0 0 0 1-1zm-2 3h-2v-2h2z"/><path d="m26 36h-4a1 1 0 0 0 -1 1v4a1 1 0 0 0 1 1h4a1 1 0 0 0 1-1v-4a1 1 0 0 0 -1-1zm-1 4h-2v-2h2z"/><path d="m34 36h-4a1 1 0 0 0 -1 1v4a1 1 0 0 0 1 1h4a1 1 0 0 0 1-1v-4a1 1 0 0 0 -1-1zm-1 4h-2v-2h2z"/><path d="m42 36h-4a1 1 0 0 0 -1 1v4a1 1 0 0 0 1 1h4a1 1 0 0 0 1-1v-4a1 1 0 0 0 -1-1zm-1 4h-2v-2h2z"/><path d="m15 33a1 1 0 0 0 -2 0v4a1 1 0 0 0 2 0z"/><path d="m10 32h-5v-2h9a1 1 0 0 0 0-2h-10a1 1 0 0 0 -1 1v32a1 1 0 0 0 2 0v-7h5a1 1 0 0 0 1-1v-4a1 1 0 0 0 -1-1h-5v-2h5a1 1 0 0 0 1-1v-4a1 1 0 0 0 -1-1h-5v-2h5a1 1 0 0 0 1-1v-4a1 1 0 0 0 -1-1zm-1 18v2h-4v-2zm0-8v2h-4v-2zm0-6h-4v-2h4z"/><path d="m15 41a1 1 0 0 0 -2 0v4a1 1 0 0 0 2 0z"/><path d="m14 48a1 1 0 0 0 -1 1v4a1 1 0 0 0 2 0v-4a1 1 0 0 0 -1-1z"/><path d="m60 36h-7v-11a1 1 0 0 0 -2 0v3h-4v-3a1 1 0 0 0 -2 0v31h-4v-6h1a1 1 0 0 0 1-1v-4a1 1 0 0 0 -1-1h-20a1 1 0 0 0 -1 1v4a1 1 0 0 0 1 1h1v6h-4v-38h26v3a1 1 0 0 0 2 0v-4a1 1 0 0 0 -1-1h-7v-5a1 1 0 0 0 -1-1h-3v-3a1 1 0 0 0 -1-1h-1v-3a1 1 0 0 0 -2 0v3h-1a1 1 0 0 0 -1 1v3h-3a1 1 0 0 0 -1 1v5h-7a1 1 0 0 0 -1 1v39h-4a1 1 0 0 0 0 2h37v2h-37a1 1 0 0 0 0 2h38a1 1 0 0 0 1-1v-3h7v3a1 1 0 0 0 2 0v-24a1 1 0 0 0 -1-1zm-29-28h2v2h-2zm-4 4h10v4h-10zm20 40v-2h12v2zm8-14v2h-8v-2zm-8 10v-2h2v2zm4-2h2v2h-2zm4 0h4v2h-4zm4-2h-12v-2h12zm0-6v2h-2v-2zm-8-8v2h-1a1 1 0 0 0 0 2h1v2h-4v-6zm-28 16h18v2h-18zm2 4h6v6h-6zm8 6v-6h6v6zm14 0v-2h4v2zm6 0v-2h2v2zm4 0v-2h2v2z"/></g></g></svg>